<svg xmlns="http://www.w3.org/2000/svg" width="55.039" height="59.103" viewBox="0 0 55.039 59.103">
    <defs>
        <style>
            .cls-1{fill:none;stroke:#c1c1c1;stroke-linecap:round;stroke-linejoin:round;stroke-miterlimit:10;stroke-width:3px}
        </style>
    </defs>
    <g id="box" transform="translate(1.5 1.3)">
        <path id="Shape" d="M28.335.544l20.816 10.407a5.2 5.2 0 0 1 2.888 4.657v24.8a5.2 5.2 0 0 1-2.888 4.657L28.335 55.471a5.2 5.2 0 0 1-4.657 0L2.862 45.063A5.2 5.2 0 0 1 0 40.379v-24.77a5.2 5.2 0 0 1 2.888-4.657L23.7.544a5.2 5.2 0 0 1 4.635 0z" class="cls-1" transform="translate(0 .241)"/>
        <path id="Shape-2" d="M0 0l25.187 12.593L50.373 0" class="cls-1" data-name="Shape" transform="translate(.833 13.04)"/>
        <path id="Shape-3" d="M0 30.6V0" class="cls-1" data-name="Shape" transform="translate(26.019 25.633)"/>
    </g>
</svg>
