<svg xmlns="http://www.w3.org/2000/svg" id="Group_2177" width="102.011" height="22.145" data-name="Group 2177" viewBox="0 0 102.011 22.145">
    <defs>
        <style>
            .cls-1{fill:#ff564b}.cls-2{fill:#0071bc}
        </style>
    </defs>
    <g id="Group_1100" data-name="Group 1100">
        <g id="Group_1099" data-name="Group 1099">
            <path id="Rectangle_188" d="M0 0h4.244v4.244H0z" class="cls-1" data-name="Rectangle 188" transform="rotate(-45 5.646 -3.383)"/>
            <g id="Group_1097" data-name="Group 1097" transform="translate(0 2.963)">
                <path id="Fill_1" d="M250.314 119.857a7.51 7.51 0 0 0 0 14.988c.12.005.238 0 .356 0h.718v-3.458h-.976a3.94 3.94 0 0 1-3.623-3.959v-.149a3.941 3.941 0 0 1 3.625-3.963 3.863 3.863 0 0 1 4.129 3.575q.009.126.011.253v4.238a3.479 3.479 0 0 0 3.5 3.459v-7.7a7.345 7.345 0 0 0-7.389-7.3c-.118 0-.234 0-.351.011" class="cls-2" data-name="Fill 1" transform="translate(-235.378 -115.666)"/>
                <path id="Fill_6" d="M287.426 128.67v-1.439a7.3 7.3 0 0 0-7.255-7.34c-.12 0-.239 0-.358.007a7.082 7.082 0 0 0-5.161 2.677 7.182 7.182 0 0 0-5.921-2.677 6.927 6.927 0 0 0-3.472 1.16v-1.211h-3.44v11.519a3.459 3.459 0 0 0 3.44 3.479v-7.393a4 4 0 0 1 3.424-4.062 3.836 3.836 0 0 1 4.194 3.441 3.793 3.793 0 0 1 .018.4v4.138a3.46 3.46 0 0 0 3.44 3.479v-7.394a4 4 0 0 1 3.424-4.062 3.835 3.835 0 0 1 4.213 3.841v4.138a3.459 3.459 0 0 0 3.44 3.479z" class="cls-2" data-name="Fill 6" transform="translate(-236.591 -115.666)"/>
                <path id="Fill_8" d="M315.325 122.052c-3.1-3.265-7.607-2.682-10.376.368a7.5 7.5 0 0 0 10.551 10.587c.088-.08.476-.479.476-.479l-2.433-2.441s-.346.35-.411.407a3.9 3.9 0 0 1-5.309-.269l-.053-.052-.053-.053a3.93 3.93 0 0 1-.263-5.324 3.8 3.8 0 0 1 5.366-.363l.069.061-2.53 2.538c3.207 3.07 8.185-1.594 4.967-4.982" class="cls-2" data-name="Fill 8" transform="translate(-242.151 -115.667)"/>
                <path id="Fill_12" d="M346.9 128.67v-1.439a7.3 7.3 0 0 0-7.255-7.34c-.119 0-.239 0-.358.007a7.081 7.081 0 0 0-5.161 2.677 7.184 7.184 0 0 0-5.922-2.677 6.928 6.928 0 0 0-3.472 1.16v-1.211h-3.44v11.519a3.459 3.459 0 0 0 3.44 3.479v-7.393a4 4 0 0 1 3.423-4.062 3.836 3.836 0 0 1 4.213 3.841v4.138a3.46 3.46 0 0 0 3.44 3.479v-7.394a4 4 0 0 1 3.423-4.062 3.835 3.835 0 0 1 4.213 3.841v4.138a3.46 3.46 0 0 0 3.44 3.479z" class="cls-2" data-name="Fill 12" transform="translate(-244.892 -115.666)"/>
                <path id="Fill_3" d="M237.666 126.96v-4.294a3.444 3.444 0 0 0 2.445-3.313h-2.445v-4.268a3.427 3.427 0 0 0-3.387 3.466v8.408a7.226 7.226 0 0 0 7.142 7.308V130.8a3.8 3.8 0 0 1-3.755-3.841" class="cls-2" data-name="Fill 3" transform="translate(-234.278 -115.085)"/>
                <path id="Fill_3-2" d="M297.828 126.96v-4.294a3.444 3.444 0 0 0 2.446-3.313h-2.446v-4.268a3.428 3.428 0 0 0-3.387 3.466v8.408a7.227 7.227 0 0 0 7.143 7.308V130.8a3.8 3.8 0 0 1-3.755-3.841" class="cls-2" data-name="Fill 3" transform="translate(-241.616 -115.085)"/>
            </g>
        </g>
    </g>
</svg>
