<svg xmlns="http://www.w3.org/2000/svg" id="Group_1326" width="147.234" height="31.962" data-name="Group 1326" viewBox="0 0 147.234 31.962">
    <defs>
        <style>
            .cls-1{fill:#ff564b}.cls-2{fill:#0071bc}
        </style>
    </defs>
    <g id="Group_1100" data-name="Group 1100">
        <g id="Group_1099" data-name="Group 1099">
            <path id="Rectangle_188" d="M0 0h6.126v6.126H0z" class="cls-1" data-name="Rectangle 188" transform="rotate(-45 8.149 -4.882)"/>
            <g id="Group_1097" data-name="Group 1097" transform="translate(0 4.277)">
                <path id="Fill_1" d="M10.138.015A10.779 10.779 0 0 0 0 10.832a10.778 10.778 0 0 0 10.138 10.816c.174.008.343 0 .513 0h1.037v-4.99H10.28a5.687 5.687 0 0 1-5.229-5.714v-.215a5.688 5.688 0 0 1 5.233-5.719 5.575 5.575 0 0 1 5.96 5.16q.013.183.015.365v6.117a5.021 5.021 0 0 0 5.051 4.993v-11.11A10.6 10.6 0 0 0 10.645 0c-.17 0-.338.006-.507.015" class="cls-2" data-name="Fill 1" transform="translate(11.42 6.033)"/>
                <path id="Fill_6" d="M36.96 12.735v-2.077A10.533 10.533 0 0 0 26.489.063c-.172 0-.345 0-.517.01a10.222 10.222 0 0 0-7.449 3.864A10.366 10.366 0 0 0 9.976.073a10 10 0 0 0-5.011 1.675V0H0v16.625a4.993 4.993 0 0 0 4.965 5.021v-6.26h.006v-4.41a5.772 5.772 0 0 1 4.943-5.863 5.537 5.537 0 0 1 6.079 5.543V16.628a4.993 4.993 0 0 0 4.965 5.021v-6.263h.006v-4.409a5.772 5.772 0 0 1 4.942-5.862 5.536 5.536 0 0 1 6.08 5.543v4.731h.005v1.241a4.993 4.993 0 0 0 4.965 5.021z" class="cls-2" data-name="Fill 6" transform="translate(36.41 6.035)"/>
                <path id="Fill_8" d="M17.625 3.172C13.149-1.541 6.646-.7 2.65 3.7a10.738 10.738 0 0 0 .559 14.719 10.658 10.658 0 0 0 14.674.561c.127-.115.687-.692.687-.692l-3.512-3.523s-.5.506-.593.588a5.627 5.627 0 0 1-7.665-.384l-.076-.075-.076-.076a5.672 5.672 0 0 1-.38-7.685 5.49 5.49 0 0 1 7.744-.523l.1.089-3.652 3.664c4.628 4.432 11.813-2.3 7.169-7.19" class="cls-2" data-name="Fill 8" transform="translate(87.987 6.044)"/>
                <path id="Fill_12" d="M36.96 12.735v-2.077A10.533 10.533 0 0 0 26.489.063c-.172 0-.345 0-.517.01a10.22 10.22 0 0 0-7.449 3.864A10.369 10.369 0 0 0 9.976.073a10 10 0 0 0-5.011 1.675V0H0v16.625a4.993 4.993 0 0 0 4.965 5.021v-6.26h.006v-4.41a5.772 5.772 0 0 1 4.942-5.863 5.536 5.536 0 0 1 6.08 5.543V16.628a4.994 4.994 0 0 0 4.965 5.021v-6.263h.006v-4.409a5.772 5.772 0 0 1 4.941-5.862 5.535 5.535 0 0 1 6.08 5.543V16.63a4.994 4.994 0 0 0 4.965 5.021z" class="cls-2" data-name="Fill 12" transform="translate(110.274 6.035)"/>
                <path id="Fill_3" d="M4.89 17.139v-6.2A4.971 4.971 0 0 0 8.419 6.16H4.89V0A4.946 4.946 0 0 0 0 5v12.137a10.429 10.429 0 0 0 10.309 10.548v-5a5.482 5.482 0 0 1-5.419-5.546" class="cls-2" data-name="Fill 3"/>
                <path id="Fill_3-2" d="M4.89 17.139v-6.2A4.971 4.971 0 0 0 8.42 6.16H4.89V0A4.947 4.947 0 0 0 0 5v12.137a10.431 10.431 0 0 0 10.31 10.548v-5a5.484 5.484 0 0 1-5.42-5.544" class="cls-2" data-name="Fill 3" transform="translate(76.242)"/>
            </g>
        </g>
    </g>
</svg>
