<?xml version="1.0" encoding="UTF-8"?>
<svg width="33px" height="40px" viewBox="0 0 33 40" version="1.1" xmlns="http://www.w3.org/2000/svg" xmlns:xlink="http://www.w3.org/1999/xlink">
    <!-- Generator: Sketch 51 (57462) - http://www.bohemiancoding.com/sketch -->
    <title>Stock blue</title>
    <desc>Created with Sketch.</desc>
    <defs></defs>
    <g id="Page-1" stroke="none" stroke-width="1" fill="none" fill-rule="evenodd">
        <g id="Slices" transform="translate(-1827.000000, -811.000000)">
            <g id="Stock-blue" transform="translate(1827.000000, 811.000000)">
                <g id="Group-22">
                    <path d="M16.3636364,39.9999998 C16.3636364,39.9999998 0,29.0909088 0,16.3636361 C1.34667558e-07,7.3262494 7.32624964,-4.03717464e-16 16.3636364,0 C25.4010231,4.03717464e-16 32.7272726,7.3262494 32.7272727,16.3636361 C32.7272727,29.0909088 16.3636364,39.9999998 16.3636364,39.9999998 Z" id="Combined-Shape" fill="#047BFF"></path>
                    <polyline id="Triangle" stroke="#FFFFFF" stroke-width="2" fill="#FFFFFF" stroke-linecap="round" points="6 13.5 16.5 6 27 13.5"></polyline>
                    <g id="Group-21" transform="translate(8.000000, 13.000000)" stroke-width="2">
                        <polyline id="Rectangle-5" stroke="#FFFFFF" fill="#FFFFFF" stroke-linecap="square" stroke-linejoin="round" points="17 0 17 11 0 11 0 0 0 0"></polyline>
                        <path d="M2,2 L15,2" id="Rectangle-5-Copy" stroke="#047BFF"></path>
                        <path d="M2,5 L15,5" id="Rectangle-5-Copy-2" stroke="#047BFF"></path>
                        <path d="M2,8 L15,8" id="Rectangle-5-Copy-3" stroke="#047BFF"></path>
                    </g>
                </g>
            </g>
        </g>
    </g>
</svg>