<svg xmlns="http://www.w3.org/2000/svg" width="246" height="53.403" viewBox="0 0 246 53.403"><defs><style>.a{fill:#ff564b;}.b{fill:#0071bc;}</style></defs><g transform="translate(0 0)"><rect class="a" width="10.235" height="10.235" transform="translate(9.757 7.238) rotate(-45)"/><g transform="translate(0 7.146)"><path class="b" d="M260.229,119.872a18.11,18.11,0,0,0,0,36.144c.29.013.574,0,.858,0h1.732v-8.338h-2.353a9.5,9.5,0,0,1-8.736-9.547v-.36a9.5,9.5,0,0,1,8.743-9.556,9.315,9.315,0,0,1,9.958,8.622q.022.3.025.61v10.221a8.389,8.389,0,0,0,8.44,8.342h0V137.448a17.712,17.712,0,0,0-17.82-17.6c-.284,0-.565.011-.847.025" transform="translate(-224.209 -109.765)"/><path class="b" d="M323.571,141.124v-3.47a17.6,17.6,0,0,0-17.5-17.7c-.288,0-.576,0-.864.017a17.079,17.079,0,0,0-12.446,6.456,17.32,17.32,0,0,0-14.28-6.456,16.706,16.706,0,0,0-8.372,2.8v-2.92h-8.3v27.778a8.343,8.343,0,0,0,8.3,8.389h0v-10.46h.011v-7.369a9.644,9.644,0,0,1,8.258-9.795,9.252,9.252,0,0,1,10.113,8.3,9.159,9.159,0,0,1,.044.963v7.9h0v2.073a8.343,8.343,0,0,0,8.3,8.389h0V145.554h.011v-7.366a9.644,9.644,0,0,1,8.258-9.8,9.249,9.249,0,0,1,10.159,9.261v7.9h.008v2.073a8.343,8.343,0,0,0,8.3,8.389h0Z" transform="translate(-200.983 -109.764)"/><path class="b" d="M332.562,125.154c-7.478-7.875-18.345-6.469-25.021.887a18.077,18.077,0,0,0,25.451,25.531c.212-.193,1.148-1.156,1.148-1.156l-5.867-5.886s-.834.845-.991.982a9.4,9.4,0,0,1-12.8-.648l-.127-.125-.127-.127a9.477,9.477,0,0,1-.635-12.84,9.172,9.172,0,0,1,12.939-.874c.057.049.112.1.167.148l-6.1,6.121c7.733,7.4,19.738-3.845,11.978-12.014" transform="translate(-156.103 -109.756)"/><path class="b" d="M383.048,141.124v-3.47a17.6,17.6,0,0,0-17.5-17.7c-.288,0-.576,0-.864.017a17.075,17.075,0,0,0-12.446,6.456,17.325,17.325,0,0,0-14.28-6.456,16.706,16.706,0,0,0-8.372,2.8v-2.92h-8.3v27.778a8.343,8.343,0,0,0,8.3,8.389v-10.46h.011v-7.369a9.643,9.643,0,0,1,8.256-9.795,9.249,9.249,0,0,1,10.159,9.261v7.9h0v2.073a8.344,8.344,0,0,0,8.3,8.389V145.554h.011v-7.366a9.644,9.644,0,0,1,8.256-9.8,9.248,9.248,0,0,1,10.159,9.261v7.9h0v2.073a8.344,8.344,0,0,0,8.3,8.389Z" transform="translate(-137.049 -109.764)"/><path class="b" d="M242.448,143.72V133.366a8.306,8.306,0,0,0,5.9-7.989h-5.9V115.085a8.263,8.263,0,0,0-8.169,8.357v20.276A17.425,17.425,0,0,0,251.5,161.341v-8.357a9.159,9.159,0,0,1-9.054-9.264" transform="translate(-234.278 -115.085)"/><path class="b" d="M302.611,143.72V133.366a8.306,8.306,0,0,0,5.9-7.989h-5.9V115.085a8.266,8.266,0,0,0-8.169,8.357v20.276a17.429,17.429,0,0,0,17.225,17.623v-8.357a9.162,9.162,0,0,1-9.056-9.264" transform="translate(-167.055 -115.085)"/></g></g></svg>