<?xml version="1.0" standalone="no"?>
<!DOCTYPE svg PUBLIC "-//W3C//DTD SVG 20010904//EN"
 "http://www.w3.org/TR/2001/REC-SVG-20010904/DTD/svg10.dtd">
<svg version="1.0" xmlns="http://www.w3.org/2000/svg"
 width="78.000000pt" height="78.000000pt" viewBox="0 0 78.000000 78.000000"
 preserveAspectRatio="xMidYMid meet">
<metadata>
Created by potrace 1.11, written by Peter Selinger 2001-2013
</metadata>
<g transform="translate(0.000000,78.000000) scale(0.100000,-0.100000)"
fill="#000000" stroke="none">
<path d="M392 727 l-52 -53 53 -52 53 -52 52 53 52 53 -53 52 -53 52 -52 -53z"/>
<path d="M257 656 c-55 -37 -58 -51 -55 -271 3 -183 5 -203 25 -240 38 -71
103 -120 176 -134 l47 -8 0 63 c0 54 -3 64 -17 64 -29 0 -81 37 -98 69 -10 20
-15 58 -15 118 0 88 0 88 33 114 18 15 38 43 44 63 l12 37 -32 -1 c-58 -3 -57
-5 -57 73 0 83 -8 90 -63 53z"/>
</g>
</svg>
